<?xml version="1.0" encoding="UTF-8"?>
<svg id="Logo_W" xmlns="http://www.w3.org/2000/svg" viewBox="0 0 566.9291 566.9291">
  <defs>
    <style>
      .cls-1 {
        fill: #fff;
        stroke-width: 0px;
      }
    </style>
  </defs>
  <g id="LIGHT">
    <polygon id="L" class="cls-1" points="95.8844 223.18 104.972 349.1026 216.038 309.6182 187.7568 295.1475 129.865 316.2552 122.5049 213.606 95.8844 223.18"/>
    <polygon id="I" class="cls-1" points="185.5534 220.6114 188.4971 274.1482 215.4657 288.2746 210.348 212.0605 185.5534 220.6114"/>
    <path id="G" class="cls-1" d="M295.508,181.995s-67.6513,14.5479-73.9935,66.1709c-3.1758,25.8494,18.8205,39.3258,40.3302,40.1643,16.4013.6393,40.9888-9.2867,40.9888-9.2867l-1.6736-23.1827s-16.4619,6.7688-25.3155,8.2905c-14.9448,2.5686-27.3979-3.8535-26.301-18.5523,2.3034-30.8658,47.0943-43.4704,47.0943-43.4704l-1.1297-20.1336Z"/>
    <path id="H_" data-name="H&amp;apos;" class="cls-1" d="M305.5294,178.3981l1.3424,20.5839s10.1109-3.9973,17.6353-13.4028c6.3487-8.2298,4.5711-15.4667,4.5711-15.4667l-23.5488,8.2856Z"/>
    <polygon id="H" class="cls-1" points="273.7887 225.1924 275.257 246.5624 310.38 234.5269 313.2666 275.3615 339.5044 265.9623 336.6038 225.3792 359.575 217.6544 362.6545 257.7411 388.423 248.6414 381.958 151.4382 355.306 160.9378 357.8646 196.2841 273.7887 225.1924"/>
    <polygon id="T" class="cls-1" points="390.9552 148.3663 392.5406 174.647 419.2902 164.9198 423.9593 236.4353 450.6453 226.6253 445.4787 154.4445 472.9571 144.4277 471.1628 120.1202 390.9552 148.3663"/>
  </g>
  <g id="BLAST">
    <path id="B" class="cls-1" d="M203.5612,333.1915c2.6691-.9626,15.2361-4.95,17.6872,4.3644,2.4512,9.3144-3.9219,15.0338-3.9219,15.0338,0,0,10.3351-.8553,11.5233,9.2908,1.2767,10.9012-4.6681,15.7303-17.926,20.8552-12.8295,4.9593-28.6977,10.4938-28.6977,10.4938l-3.628-50.9347s22.9647-8.3826,24.963-9.1034ZM191.6689,359.6208s13.2804-4.9251,17.518-6.9229c5.4199-2.5551,5.192-13.9054-1.9746-11.2509s-16.368,6.0904-16.368,6.0904l.8245,12.0833ZM193.0287,380.0796s16.8946-6.3652,22.3675-8.7221c5.4729-2.3569,4.8185-14.2019-3.119-11.4201s-19.9902,7.7804-19.9902,7.7804l.7417,12.3619Z"/>
    <polygon id="L-2" data-name="L" class="cls-1" points="242.7593 318.6161 246.1395 368.8145 280.8735 355.1627 280.1785 345.373 255.8685 354.6769 253.2178 314.8689 242.7593 318.6161"/>
    <path id="A" class="cls-1" d="M292.4779,350.5893l18.4314-56.8575s5.5664-2.3615,9.54-3.4741c3.9736-1.1126,5.8833-.0666,9.2211,4.5428s23.6824,33.6958,23.6824,33.6958l-10.8081,4.1325-6.5166-9.8544-16.0081,5.9884,3.7495-12.4432,6.3778-2.446-10.8081-14.6227-14.3048,46.7291-12.5565,4.6093Z"/>
    <path id="S" class="cls-1" d="M390.7535,276.4968l5.0537-9.241s-19.2021-3.0396-30.5226,6.6636c-11.3204,9.7032-10.0178,25.798-.1617,26.5222,12.2747.9019,22.0628-7.7544,26.1296-3.8962,1.7078,1.6202,3.7513,7.3245-6.2806,11.3023-8.8394,3.505-19.7299,1.9406-19.7299,1.9406l-5.6602,7.9243s15.1951,3.8591,30.0801-3.3961c16.2563-7.9236,13.6297-17.3375,13.0611-20.5866-.7299-4.171-4.6924-8.6549-11.6789-7.6122-5.63.8403-9.6949,3.3809-15.8944,4.2972-11.4364,1.6903-8.0123-10.3423,2.2238-12.8041,8.2378-1.9812,13.3801-1.1141,13.3801-1.1141Z"/>
    <polygon id="T-2" data-name="T" class="cls-1" points="409.8921 258.4999 451.9076 243.2503 452.5118 252.4087 438.1371 257.8814 440.7191 295.4059 430.9343 299.3797 428.3257 261.6683 410.5862 268.4527 409.8921 258.4999"/>
  </g>
  <g id="Outline">
    <path class="cls-1" d="M481.6649,105.1961l2.9477,49.1955-25.9542,9.4851-1.0485.3832.066,1.1145,7.8074,131.6888-296.8715,112.7318-5.1474-61.8224-.1656-1.9885-1.8642.7116-67.9298,25.9292-10.7321-154.8104,50.2312-18.6793,6.942,100.2702.1391,2.0092,1.8852-.7087,33.9024-12.7461,1.0415-.3916-.0726-1.1103-4.6731-71.4917,309.4965-109.77M483.043,103.1157l-312.4453,110.8159,4.7471,72.624-33.9024,12.7461-7.0806-102.272-53.163,19.7695,10.9497,157.9487,69.8211-26.6511,5.3127,63.8073,299.7637-113.83-7.8726-132.7887,27.0035-9.8685-3.1338-52.3013h0Z"/>
  </g>
</svg>